:SAMPLES-PER-SECOND 30
:FULLY-SPECIFIED
:DEGREES
457
root  5.86728 35.2517 2.87968 -89.4837 -66.2764 98.6044
RightUpLeg  -27.7992 -11.585 -52.8624
RightLeg  12.8499 -2.24028 -1.50086
RightFoot  14.2394 -6.60585 28.9709
RightToes  -2.32832e-010 0 -3.6325e-017
Spine  27.4626 5.8884 17.5291
Spine1  -1.71901 17.2874 -39.2177
HEad  -24.5637 -36.6086 -5.52711
LeftShoulder1  0.65163 0.773005 -17.1658
LeftArm  1.89883 27.8286 -35.2621
LeftForeArm  3.47335 -10.9031 -11.9514
LeftHand  -0.991235 0.231169 22.2915
RightShoulder  1.03878 3.84219 6.49247
RightArm  -52.5752 44.4511 29.0204
RightForeArm  -37.7695 13.9898 1.22148
RightHand  -0.693955 -1.74655 -21.9828
LeftUpLeg  -25.4697 19.4394 -7.08707
LeftLeg  29.5436 -0.0338725 0.34686
LeftFoot  -6.54293 1.16218 -26.3875
LeftToes  2.2737e-010 4.38529e-011 2.18788e-011
458
root  5.83226 35.3315 2.85717 -89.7936 -66.4838 99.4823
RightUpLeg  -27.8289 -16.2153 -49.8661
RightLeg  10.2347 2.44395 -2.353
RightFoot  15.2594 -7.15409 30.0864
RightToes  -2.32832e-010 0 -3.6325e-017
Spine  27.0612 5.2545 19.1606
Spine1  -0.96655 17.5801 -41.295
HEad  -25.1554 -36.8425 -5.74029
LeftShoulder1  0.551433 1.25449 -17.8541
LeftArm  14.8017 27.9442 -35.4952
LeftForeArm  -1.92137 -17.2053 -9.02705
LeftHand  -1.0058 -1.21205 17.7787
RightShoulder  0.961979 4.06636 4.85894
RightArm  -50.3743 43.6067 27.0284
RightForeArm  -24.9146 11.2318 1.60596
RightHand  -1.07954 0.0597997 -22.7152
LeftUpLeg  -25.6588 19.2124 -6.9517
LeftLeg  28.9417 0.515236 0.671806
LeftFoot  -6.42543 1.18542 -26.2906
LeftToes  2.2737e-010 4.38529e-011 2.18788e-011
459
root  5.75038 35.6246 2.5844 -87.0999 -68.7453 97.37
RightUpLeg  -26.9184 -22.7319 -43.8059
RightLeg  6.81024 8.22479 -3.69463
RightFoot  15.9822 -7.77923 31.7314
RightToes  -2.32832e-010 0 -3.6325e-017
Spine  26.4549 5.41311 19.9641
Spine1  -1.43496 17.2584 -40.0108
HEad  -24.8391 -37.0368 -6.01193
LeftShoulder1  0.546336 1.27284 -17.8435
LeftArm  24.503 28.48 -36.5459
LeftForeArm  1.23992 -21.3451 -5.81332
LeftHand  -1.10808 -2.18456 17.0843
RightShoulder  1.00003 4.38581 4.82163
RightArm  -47.3827 39.815 24.4361
RightForeArm  -7.48952 7.83622 2.8154
RightHand  -1.4139 0.831248 -26.2514
LeftUpLeg  -25.2193 17.6036 -4.35362
LeftLeg  26.7332 1.37302 1.10478
LeftFoot  -5.40334 1.45323 -26.9256
LeftToes  2.2737e-010 4.38529e-011 2.18788e-011
460
root  5.65624 36.0075 2.1999 -84.4803 -71.7538 95.1559
RightUpLeg  -25.6325 -25.8491 -38.5866
RightLeg  3.68024 10.213 -4.27663
RightFoot  16.9234 -8.12877 32.0118
RightToes  -2.32832e-010 0 -3.6325e-017
Spine  26.1954 6.34069 19.7925
Spine1  -2.81477 16.9817 -37.054
HEad  -24.0616 -37.3211 -5.4141
LeftShoulder1  0.528517 1.27026 -16.9378
LeftArm  27.6117 28.7978 -38.4684
LeftForeArm  8.54882 -22.5892 -4.74887
LeftHand  -1.22177 -1.9766 19.344
RightShoulder  1.03705 4.39518 5.33933
RightArm  -42.6493 34.0672 22.4808
RightForeArm  9.81436 4.08582 4.1252
RightHand  -1.2743 -0.266116 -28.4801
LeftUpLeg  -24.2259 15.3427 -0.600364
LeftLeg  23.9045 3.05245 1.81939
LeftFoot  -4.02638 1.78657 -27.1256
LeftToes  2.2737e-010 4.38529e-011 2.18788e-011
461
root  5.53343 36.3709 1.85816 -80.7822 -73.7799 91.7379
RightUpLeg  -23.705 -25.8659 -36.1979
RightLeg  1.2719 8.6938 -4.27582
RightFoot  18.0473 -8.16282 30.9401
RightToes  -2.32832e-010 0 -3.6325e-017
Spine  25.787 7.00243 18.7253
Spine1  -4.15315 16.408 -34.5355
HEad  -23.6253 -37.471 -3.22742
LeftShoulder1  0.48801 1.32552 -15.5864
LeftArm  28.2016 28.5365 -40.0688
LeftForeArm  9.93533 -22.3188 -4.82642
LeftHand  -1.26194 -1.75738 20.5452
RightShoulder  1.05204 4.21659 5.90125
RightArm  -37.259 27.1615 22.0429
RightForeArm  20.8183 1.26836 5.16591
RightHand  -0.953489 -1.2747 -26.5055
LeftUpLeg  -22.9831 11.7895 2.19019
LeftLeg  20.8227 5.94328 2.81017
LeftFoot  -2.40098 2.07987 -26.0361
LeftToes  2.2737e-010 4.38529e-011 2.18788e-011
462
root  5.36703 36.6181 1.64136 -75.5217 -73.859 86.5658
RightUpLeg  -21.6841 -25.4365 -36.4536
RightLeg  0.0634523 6.71959 -4.45071
RightFoot  18.3997 -8.0626 30.2265
RightToes  -2.32832e-010 0 -3.6325e-017
Spine  25.0457 6.61584 17.2179
Spine1  -4.76872 15.2286 -34.0326
HEad  -23.8049 -37.2646 -0.0775355
LeftShoulder1  0.515583 1.1253 -14.7894
LeftArm  28.1847 27.478 -39.4003
LeftForeArm  5.72929 -22.182 -5.10004
LeftHand  -1.26913 -2.36193 19.1101
RightShoulder  1.09937 4.16841 6.69396
RightArm  -32.508 19.4704 23.183
RightForeArm  20.5156 0.0617364 6.13279
RightHand  -0.733142 -1.56524 -22.0115
LeftUpLeg  -21.4977 8.03539 2.93971
LeftLeg  17.4736 8.74419 3.30149
LeftFoot  -0.535197 2.4107 -25.0716
LeftToes  2.2737e-010 4.38529e-011 2.18788e-011
